<?xml version="1.0" standalone="no"?>
<!DOCTYPE svg PUBLIC "-//W3C//DTD SVG 20010904//EN"
 "http://www.w3.org/TR/2001/REC-SVG-20010904/DTD/svg10.dtd">
<svg version="1.0" xmlns="http://www.w3.org/2000/svg"
 width="225.000000pt" height="225.000000pt" viewBox="0 0 225.000000 225.000000"
 preserveAspectRatio="xMidYMid meet">

<g transform="translate(0.000000,225.000000) scale(0.100000,-0.100000)"
fill="#000000" stroke="none">
<path d="M1075 2170 c-16 -34 -35 -66 -41 -71 -7 -6 -57 -19 -110 -30 -315
-65 -573 -318 -651 -639 -24 -98 -21 -312 6 -414 28 -104 77 -204 147 -296
l56 -74 -35 -156 c-40 -170 -98 -480 -91 -480 1 0 84 99 184 220 99 120 184
221 189 224 4 3 36 -6 70 -20 103 -42 209 -57 356 -52 112 4 143 9 224 37 51
17 123 49 160 70 l66 39 79 -154 c44 -85 81 -152 83 -150 3 2 -9 91 -27 196
l-31 192 44 51 c94 112 143 201 184 334 23 78 26 104 26 233 0 118 -4 160 -22
225 -41 153 -112 274 -222 382 -145 143 -290 216 -491 248 -34 5 -40 12 -75
75 -20 39 -40 70 -43 70 -4 0 -19 -27 -35 -60z m-75 -134 c0 -2 -32 -72 -70
-156 -170 -366 -300 -715 -411 -1100 l-21 -75 -33 39 c-125 149 -188 410 -151
623 31 176 91 296 215 426 87 91 191 164 287 200 90 34 184 56 184 43z m392
-36 c106 -37 177 -82 274 -173 143 -134 217 -271 250 -459 40 -226 -26 -477
-168 -643 -28 -34 -50 -51 -52 -43 -2 7 -25 101 -50 208 -79 328 -210 695
-365 1023 l-60 128 47 -7 c26 -4 81 -19 124 -34z m-34 -1215 c57 -26 139 -103
189 -176 l31 -45 -47 -31 c-55 -36 -145 -74 -222 -94 -35 -9 -107 -14 -204
-13 -135 0 -158 3 -230 27 -121 41 -120 39 -50 103 248 230 395 293 533 229z"/>
</g>
</svg>
